<svg xmlns:xlink="http://www.w3.org/1999/xlink" xmlns="http://www.w3.org/2000/svg" id="wave" style="transform:rotate(180deg); transition: 0.3s" 
viewBox="0 0 1440 218" version="1.1">
<defs>
<linearGradient id="grad1" x1="0%" y1="0%" x2="100%" y2="0%">
      <stop offset="0" style="stop-color:#418DA1;"/>
      <stop offset="10%" style="stop-color:#8FDFF4;"/>
</linearGradient>
</defs>
<path xmlns="http://www.w3.org/2000/svg" style="transform:translate(0, 0px); opacity:1" fill="url(#grad1)" d="M0,0L60,0C120,0,240,0,360,27C480,54,600,108,720,130.5C840,153,960,144,1080,121.5C1200,99,1320,63,1440,67.5C1560,72,1680,117,1800,112.5C1920,108,2040,54,2160,36C2280,18,2400,36,2520,45C2640,54,2760,54,2880,63C3000,72,3120,90,3240,90C3360,90,3480,72,3600,72C3720,72,3840,90,3960,121.5C4080,153,4200,198,4320,211.5C4440,225,4560,207,4680,189C4800,171,4920,153,5040,130.5C5160,108,5280,81,5400,58.5C5520,36,5640,18,5760,31.5C5880,45,6000,90,6120,99C6240,108,6360,81,6480,81C6600,81,6720,108,6840,121.5C6960,135,7080,135,7200,130.5C7320,126,7440,117,7560,126C7680,135,7800,162,7920,148.5C8040,135,8160,81,8280,85.5C8400,90,8520,153,8580,184.5L8640,216L8640,270L8580,270C8520,270,8400,270,8280,270C8160,270,8040,270,7920,270C7800,270,7680,270,7560,270C7440,270,7320,270,7200,270C7080,270,6960,270,6840,270C6720,270,6600,270,6480,270C6360,270,6240,270,6120,270C6000,270,5880,270,5760,270C5640,270,5520,270,5400,270C5280,270,5160,270,5040,270C4920,270,4800,270,4680,270C4560,270,4440,270,4320,270C4200,270,4080,270,3960,270C3840,270,3720,270,3600,270C3480,270,3360,270,3240,270C3120,270,3000,270,2880,270C2760,270,2640,270,2520,270C2400,270,2280,270,2160,270C2040,270,1920,270,1800,270C1680,270,1560,270,1440,270C1320,270,1200,270,1080,270C960,270,840,270,720,270C600,270,480,270,360,270C240,270,120,270,60,270L0,270Z"/></svg>